<svg width="14896" height="32543" viewBox="0 0 14896 32543" fill="none" xmlns="http://www.w3.org/2000/svg">
<g id="cuerpo">
<g id="Vector 38">
<path d="M13099.5 16243.5C12623.1 16643.1 10953.7 16346 10178.5 16147.5C8268.73 16236.7 8745.76 17372.6 11182.5 17646.5C11860.9 17722.7 12890.5 17668.7 13328.8 17775.5C13404.8 18069 13533.5 18317.3 13718 18513.5C13859.3 18663.8 14098.5 18898 14320.5 18699.9C14489.1 18724 14659.3 18631.9 14767.5 18288.8C15017.1 18046.3 14763.1 17646.5 14540.5 17646.5C14232.9 17615.7 13368.5 16017.9 13099.5 16243.5Z" fill="#8B542B"/>
<path d="M14098.5 18184.5C14206.1 18368.9 14438 18415 14540.5 18415C14641.4 18383.2 14715.4 18339.4 14767.5 18288.8M13884 18415C13986.1 18536.4 14152.5 18675.8 14320.5 18699.9M14767.5 18288.8C15017.1 18046.3 14763.1 17646.5 14540.5 17646.5C14232.9 17615.7 13368.5 16017.9 13099.5 16243.5C12623.1 16643.1 10953.7 16346 10178.5 16147.5C8268.73 16236.7 8745.76 17372.6 11182.5 17646.5C11860.9 17722.7 12890.5 17668.7 13328.8 17775.5M14767.5 18288.8C14659.3 18631.9 14489.1 18724 14320.5 18699.9M14320.5 18699.9C14098.5 18898 13859.3 18663.8 13718 18513.5C13533.5 18317.3 13404.8 18069 13328.8 17775.5M13281.5 17547C13294 17625.9 13309.7 17702.1 13328.8 17775.5" stroke="black" stroke-width="50"/>
</g>
<g id="Vector 37">
<path d="M4799.5 31926.5C3922 32049.2 4929.34 28447.7 5275.84 27431L5620.51 23855.5C6754.51 22688.5 6754.51 20464.5 6893.01 18069C7006.14 16112.1 8669.17 15745.2 9369.01 15528.5C9590.01 15460.1 9760.51 15265.5 9760.51 14569C9760.51 14058.5 10315.6 14198.5 10425.5 14832.5C10565 15637.5 10580.5 15405 10425.5 16271.5C11056.7 16407.9 12215.5 17432 12716 17927L13309.6 18630L13603.2 18559.5C13943.7 18474 13969.2 20611 14232.5 20773C14432.7 20870.2 14566.2 21351.3 14235.8 21460.5C13988.6 21722 13744.4 21723.3 13603.2 21628C13317 21709.3 13178.8 21387.7 13117.3 21190.9C13036.9 20933.8 13023 20616.5 13049 20235C13122.2 19161 12688.7 19083.2 12495.5 19185L11741 19397L11150.5 19554C12168.5 22718.5 9552.99 24589.4 9369.01 26368.5C9169 28302.5 9077.01 27505.5 8743.01 29655C8654.21 30226.5 8482.34 30690.7 8517.01 30888C8676.62 31796.5 8474.51 32472.8 7949.01 32454C7673.68 32548.8 7491.81 32527.5 7375.17 32454C7375.16 32454 7375.16 32454 7375.15 32454C7277.95 32518.8 7095.68 32481 7023.51 32454C6823.01 32379 6662.75 31983.1 6910.01 31720.1C7122.01 31494.6 7172.85 31274.8 7193.51 31113.4C7328.51 30058 7604.65 28244.5 7375.15 27798.5L6754.51 27931C6664.13 28436.6 5531 30413.1 5531 30988L5620.5 31070.4C6010.65 31330.3 5665.93 31868.3 5374.52 31778.8C5374.51 31778.8 5374.51 31778.7 5374.5 31778.7C5176.34 32051 4950.39 32044.9 4799.5 31926.5Z" fill="#94603A"/>
<path d="M4799.5 31926.5C3922 32049.2 4929.34 28447.7 5275.84 27431L5620.51 23855.5C6754.51 22688.5 6754.51 20464.5 6893.01 18069C7006.14 16112.1 8669.17 15745.2 9369.01 15528.5C9590.01 15460.1 9760.51 15265.5 9760.51 14569C9760.51 14058.5 10315.6 14198.5 10425.5 14832.5C10565 15637.5 10580.5 15405 10425.5 16271.5C11056.7 16407.9 12215.5 17432 12716 17927L13309.6 18630L13603.2 18559.5C13943.7 18474 13969.2 20611 14232.5 20773C14432.7 20870.2 14566.2 21351.3 14235.8 21460.5M4799.5 31926.5C4799.42 31926.5 4799.44 31926.5 4799.42 31926.5M4799.5 31926.5C4950.39 32044.9 5176.34 32051 5374.5 31778.7M5374.5 31778.7C5665.92 31868.4 6010.66 31330.3 5620.5 31070.4M5374.5 31778.7C5176.3 32051 4950.3 32044.9 4799.42 31926.5M5139 31476.9C5374.5 32236.4 6134 31412.4 5620.5 31070.4M5620.5 31070.4L5531 30988M5438.5 30909.9L5531 30988M5531 30988C5531 30413.1 6664.13 28436.6 6754.51 27931M6754.51 27672.5C6775.51 27762.6 6769.28 27848.4 6754.51 27931M6754.51 27931L7375.15 27798.5M7375.15 27798.5L6893.01 27672.5M7375.15 27798.5C7604.65 28244.5 7328.51 30058 7193.51 31113.4C7172.85 31274.8 7122.01 31494.6 6910.01 31720.1C6662.75 31983.1 6823.01 32379 7023.51 32454C7095.68 32481 7277.95 32518.8 7375.15 32454M7375.15 32454C7297.27 32416.7 7151.91 32273.6 7193.51 32000.1M7375.15 32454C7205.42 32347.1 7173.85 32130 7193.51 32000.1M7375.15 32454C7491.79 32527.5 7673.67 32548.8 7949.01 32454M7193.51 32000.1C7160.34 32219.2 7273.01 32686.8 7949.01 32454M7949.01 32454C7861.34 32410.2 7677.91 32234.5 7685.51 31926.5M7949.01 32454C8474.51 32472.8 8676.62 31796.5 8517.01 30888C8482.34 30690.7 8654.21 30226.5 8743.01 29655C9077.01 27505.5 9169 28302.5 9369.01 26368.5C9552.99 24589.4 12168.5 22718.5 11150.5 19554M11150.5 19554C9760.51 20059.5 8456 18790 8985.51 17675.5M11150.5 19554L11741 19397L12495.5 19185C12688.7 19083.2 13122.2 19161 13049 20235C13023 20616.5 13036.9 20933.8 13117.3 21190.9C13178.8 21387.7 13317 21709.3 13603.2 21628M4799.42 31926.5C4797.77 31925.2 4796.08 31923.9 4794.34 31922.4M4799.42 31926.5C4797.71 31925.1 4796.02 31923.8 4794.34 31922.4M4794.34 31922.4C4687.41 31835.8 4619.67 31692.4 4629 31553.4C4629 31740.9 4736.07 31874.6 4794.34 31922.4ZM13603.2 21061C13619.5 21273.9 13807.3 21398.2 13899.5 21443C14004.1 21458.4 14166.8 21483.3 14235.8 21460.5M14235.8 21460.5C13988.6 21722 13744.4 21723.3 13603.2 21628M13309.6 21174.7C13348.4 21328.6 13462.6 21533 13603.2 21628" stroke="black" stroke-width="50"/>
</g>
<path id="Vector 36" d="M30.881 25790.6C1063.43 24379.3 2538.98 24636.1 3157.19 24776.3C3483.9 24008.7 4583.78 22729 6374.68 23030.8C6843.97 21711.4 8802.02 20807.6 9106.05 21027.1C9358.28 22126.9 9177.76 24118.1 7624.39 24496.8C7917.3 25094.9 7863.61 26048.2 7784.86 26323.7C7775.15 26402.5 7758.65 26476.7 7827.89 26977.6C7897.12 27478.5 7386.25 27832.7 7092.77 27985.6C5992.28 28559.3 5933.17 28040.3 5265.91 27700.7C4373.67 27567.9 3872.64 26939.5 3647.96 26648.3C1844.52 27733.5 152.209 25974.8 30.881 25790.6Z" fill="#94603A" stroke="black" stroke-width="50"/>
<path id="Polygon 5" d="M6635.58 27158.7L6774.74 26709.8C6492.03 26764.5 6359.46 26838.9 6163.68 27041.5L6635.58 27158.7Z" fill="black"/>
<ellipse id="Ellipse 4" rx="759.593" ry="765.438" transform="matrix(0.621919 -0.782474 0.804228 0.595171 4810.1 26193)" fill="white"/>
<ellipse id="Ellipse 5" rx="759.593" ry="765.438" transform="matrix(0.621919 -0.782474 0.804228 0.595171 6750.81 25147.3)" fill="white"/>
<g id="ojoiz" filter="url(#filter0_d_0_1)">
<ellipse rx="341.698" ry="349.604" transform="matrix(0.621919 -0.782474 0.804228 0.595171 4792.67 26345.4)" fill="black"/>
</g>
<g id="ojoiz_2" filter="url(#filter1_d_0_1)">
<ellipse rx="341.698" ry="349.604" transform="matrix(0.621919 -0.782474 0.804228 0.595171 6733.67 25304.4)" fill="black"/>
</g>
<path id="Vector 43" d="M621 25738.5C1450.5 25117 2511.5 24878 3110.5 25106.5C3019.5 25529 3176 26220 3391.5 26498C2576.7 27097.2 952.5 26352.5 621 25738.5Z" fill="#FFE0CA" stroke="black" stroke-width="50"/>
<path id="Vector 44" d="M8734.5 21547C7780.5 21717 6822.16 22544.1 6624.5 23154C7010.66 23348.1 7503.1 23856.8 7584.5 24199C8562.21 23940.1 9106.5 22187 8734.5 21547Z" fill="#FFE0CA" stroke="black" stroke-width="50"/>
<path id="Vector 46" d="M10482 19684C10841.8 20528.5 10868 22916.8 10608 23692C11748 21743 11371.3 20168.8 11156.5 19559.5C10735.5 19684 10634 19684 10482 19684Z" fill="#FFE1CB" stroke="black" stroke-width="50"/>
</g>
<g id="cuerda">
<path id="Vector 39" d="M9720.51 14982C9285.5 15072 10739 15424.5 10491 15165.5" stroke="black" stroke-width="50"/>
<path id="Vector 42" d="M9720.81 15065C9285.79 15155 10739.3 15507.5 10491.3 15248.5" stroke="black" stroke-width="50"/>
<path id="Vector 41" d="M9723.41 15183C9173.5 15183 10774.3 15625.7 10518.4 15366.6" stroke="black" stroke-width="50"/>
<path id="Vector 40" d="M9731.5 14920.5C9296.49 15010.5 10807.5 15338 10473 15086" stroke="black" stroke-width="50"/>
<path id="Vector 45" d="M10525.2 15451C10341.3 15656.2 10053.7 16075.8 10374.4 16112.9C10695.1 16150 10608.5 15687.1 10525.2 15451ZM10525.2 15451C10531.6 15690 10875.9 16195.6 11062.5 15982.5C11280.5 15733.5 10757.7 15622 10525.2 15451Z" stroke="black" stroke-width="50"/>
</g>
<g id="globo3">
<path id="Vector 17" d="M10114.8 15105.9C9843.79 14452.7 10557.3 13308.4 10112.4 12552.9C9776.72 11982.7 9709.88 11704.6 9847.68 11105.5C9892.46 10961.4 9970.65 10748.5 10146 10609.7M9920.6 4967.38C10472.5 5495.81 10384.9 7506.66 10153.4 8332.11C9997.38 8888.43 9669.19 9978.64 9984.72 10417.6C10040.7 10495.4 10094.9 10558.6 10146 10609.7M10146 10609.7C10257.5 10521.5 10408.2 10463.1 10614.6 10471.4C10760.7 10473 10794.2 10810 10505.4 10807C10448.8 10813.9 10313.8 10777.2 10146 10609.7Z" stroke="black" stroke-width="50" stroke-linecap="round" stroke-linejoin="round"/>
<path id="Vector 14" d="M9938.28 4973.4C10126.1 4875.33 10469.2 4944.47 10377.6 5137.46C10286 5330.46 10156 5103.47 9938.28 4973.4Z" stroke="black" stroke-width="50" stroke-linecap="round" stroke-linejoin="round"/>
<path id="Vector 15" d="M9918.67 4997.56C9816.8 5213.4 9833 5636.86 10001 5548.58C10168.9 5460.29 9999.19 5276.27 9918.67 4997.56Z" stroke="black" stroke-width="50" stroke-linecap="round" stroke-linejoin="round"/>
<path id="Ellipse 10" d="M9726.1 1045.76C10119.5 1596.41 10351.6 2419.18 10385.8 3190.5C10402.9 3575.92 10370.5 3947.24 10284.9 4264.2C10199.2 4581.35 10060.8 4842.17 9867.07 5009.45C9731.73 5126.34 9498.26 5188.57 9206.72 5195.84C8916.37 5203.09 8572.88 5155.71 8221.75 5058.34C7518.64 4863.35 6790.5 4469.51 6397.93 3920.03C5610.29 2817.56 5721.81 1282.8 6638.83 490.849C7555.84 -301.103 8938.46 -56.7079 9726.1 1045.76Z" fill="#FFF585" stroke="black" stroke-width="50" stroke-linecap="round" stroke-linejoin="round"/>
</g>
<defs>
<filter id="filter0_d_0_1" x="4301.21" y="25868.6" width="982.914" height="955.62" filterUnits="userSpaceOnUse" color-interpolation-filters="sRGB">
<feFlood flood-opacity="0" result="BackgroundImageFix"/>
<feColorMatrix in="SourceAlpha" type="matrix" values="0 0 0 0 0 0 0 0 0 0 0 0 0 0 0 0 0 0 127 0" result="hardAlpha"/>
<feMorphology radius="135" operator="dilate" in="SourceAlpha" result="effect1_dropShadow_0_1"/>
<feOffset dy="1"/>
<feGaussianBlur stdDeviation="2"/>
<feComposite in2="hardAlpha" operator="out"/>
<feColorMatrix type="matrix" values="0 0 0 0 0.609297 0 0 0 0 0.6875 0 0 0 0 0.128906 0 0 0 1 0"/>
<feBlend mode="normal" in2="BackgroundImageFix" result="effect1_dropShadow_0_1"/>
<feBlend mode="normal" in="SourceGraphic" in2="effect1_dropShadow_0_1" result="shape"/>
</filter>
<filter id="filter1_d_0_1" x="6242.21" y="24827.6" width="982.914" height="955.62" filterUnits="userSpaceOnUse" color-interpolation-filters="sRGB">
<feFlood flood-opacity="0" result="BackgroundImageFix"/>
<feColorMatrix in="SourceAlpha" type="matrix" values="0 0 0 0 0 0 0 0 0 0 0 0 0 0 0 0 0 0 127 0" result="hardAlpha"/>
<feMorphology radius="135" operator="dilate" in="SourceAlpha" result="effect1_dropShadow_0_1"/>
<feOffset dy="1"/>
<feGaussianBlur stdDeviation="2"/>
<feComposite in2="hardAlpha" operator="out"/>
<feColorMatrix type="matrix" values="0 0 0 0 0.609297 0 0 0 0 0.6875 0 0 0 0 0.128906 0 0 0 1 0"/>
<feBlend mode="normal" in2="BackgroundImageFix" result="effect1_dropShadow_0_1"/>
<feBlend mode="normal" in="SourceGraphic" in2="effect1_dropShadow_0_1" result="shape"/>
</filter>
</defs>
</svg>
