<svg width="17769" height="7738" viewBox="0 0 17769 7738" fill="none" xmlns="http://www.w3.org/2000/svg">
<g id="cara">
<path id="Ellipse 1" d="M13709 5316.75C13709 5902.89 13578.2 6343.68 13342.1 6676C13106 7008.31 12762.7 7234.66 12333.2 7388.65C11472.4 7697.25 10272.5 7713 8914.67 7713C7557 7713 6308.37 7697.28 5398.99 7388.51C4945.02 7234.37 4577.59 7007.78 4323.48 6675.3C4069.51 6342.99 3926.85 5902.43 3926.85 5316.75C3926.85 4142.16 4299.13 3015.61 5094.84 2182.89C5890.27 1350.46 7111.27 809.096 8813.87 809.096C10449.6 809.096 11672.9 1350.32 12487.2 2183.1C13301.7 3016.11 13709 4142.74 13709 5316.75Z" fill="#727272" stroke="black" stroke-width="50"/>
<path id="Vector 3" d="M4688.8 59.5775C5733.38 461.812 6289.15 837.845 6779.95 1148.41C5703.39 1587.12 4805.54 2355.44 4316.74 3398.43C3894.58 1914.54 3829.91 -271.157 4688.8 59.5775Z" fill="#727272" stroke="black" stroke-width="50"/>
<path id="Vector 5" d="M4843.75 503.126C5503.43 773.703 6067.71 1102.36 6377.66 1311.27C5720.69 1669.61 5127.61 2181.52 4635.33 2802.1C4368.72 1803.92 4301.34 280.647 4843.75 503.126Z" fill="#FFE7D9" stroke="black" stroke-width="50"/>
<path id="Vector 4" d="M12788.9 226.689C11774.5 631.399 11365.8 871.183 10889.2 1183.66C11934.7 1625.07 12825.8 2427.16 13300.5 3476.57C13710.4 1983.55 13623 -106.08 12788.9 226.689Z" fill="#727272" stroke="black" stroke-width="50"/>
<path id="Vector 6" d="M12735 538.916C12075.3 809.492 11583.4 1133.79 11273.5 1342.71C11930.5 1701.04 12501 2185.11 12969.9 2857.78C13236.5 1859.6 13277.4 316.437 12735 538.916Z" fill="#FFE7D9" stroke="black" stroke-width="50"/>
<g id="Group 3">
<path id="Polygon 1" d="M7563.82 2749.79L7920.21 874.2L7061.11 1036.63L7563.82 2749.79Z" fill="black"/>
<path id="Polygon 3" d="M9863.23 2713.41L9506.85 837.824L10365.9 1000.26L9863.23 2713.41Z" fill="black"/>
<path id="Polygon 2" d="M8758.42 3248.45L9154.06 834.386H8273.89L8758.42 3248.45Z" fill="black"/>
</g>
<g id="Group 2">
<ellipse id="Ellipse 2" cx="7741.11" cy="4465.36" rx="304.189" ry="758.885" fill="black"/>
<ellipse id="Ellipse 3" cx="9845.23" cy="4465.36" rx="304.189" ry="758.885" fill="black"/>
</g>
</g>
<g id="patas">
<g id="Vector 1">
<path d="M185.704 5856.21C903.659 4455.06 2985.25 4488.72 3720.77 5856.21C4110.49 6580.77 3779.53 7060.4 3380.77 7153.67C3380.77 7247.65 3306.98 7409.31 3306.98 7409.31C3306.98 7409.31 3261.98 7257.06 3224.18 7170.16C2963.62 7164.4 2709.91 6991.47 2636.41 6613.82C2625.81 7007.67 2334.46 7195.49 2032.62 7204.68L1956.13 7409.31L1890.43 7195.85C1628.81 7155.21 1391.82 6980.61 1361.48 6690.48C1246.09 7129.76 872.387 7268.63 549.48 7174.98C549.48 7174.98 549.257 7174.89 548.826 7174.73C496.083 7155.76 456.783 7409.31 456.783 7409.31C456.783 7409.31 396.486 7318.6 340.688 7075.8C48.7587 6874.3 -115.041 6443.14 185.704 5856.21Z" fill="#727272"/>
<path d="M340.688 7075.8C48.7587 6874.3 -115.041 6443.14 185.704 5856.21C903.659 4455.06 2985.25 4488.72 3720.77 5856.21C4160.85 6674.41 3681.95 7180.28 3224.18 7170.16M340.688 7075.8C396.486 7318.6 456.783 7409.31 456.783 7409.31C456.783 7409.31 496.408 7153.67 549.48 7174.98M340.688 7075.8C405.234 7120.35 549.48 7174.98 549.48 7174.98M549.48 7174.98C936.811 7287.31 1397.24 7065.1 1397.24 6391.13C1248.62 6860.78 1548.5 7142.74 1890.43 7195.85M1890.43 7195.85L1956.13 7409.31L2032.62 7204.68M1890.43 7195.85C1937.39 7203.14 1985.13 7206.12 2032.62 7204.68M2032.62 7204.68C2386.73 7193.9 2726.41 6937.26 2615.25 6390.54C2619.08 6924.03 2916.87 7163.37 3224.18 7170.16M3224.18 7170.16C3261.98 7257.06 3306.98 7409.31 3306.98 7409.31C3306.98 7409.31 3380.77 7247.65 3380.77 7153.67" stroke="black" stroke-width="50"/>
</g>
<g id="Vector 2">
<path d="M15689.7 7452.85L15621.6 7239.4C15670.3 7246.68 15719.8 7249.65 15769 7248.19L15689.7 7452.85Z" fill="white"/>
<path d="M13921.9 5862.44C13585.7 6494.99 13782.6 6946.4 14099.8 7124.45C14156.8 7156.49 14217.8 7179.68 14280.3 7193.47C14576.3 7258.81 14905.7 7113.44 15013 6700.22C15002 6610.04 15012 6508.61 15048.8 6396.48C15048.8 6510.45 15036 6611.5 15013 6700.22C15094.7 7371.9 16341.7 7419.06 16357.5 6610.23C16343.9 6544.9 16336.3 6473.6 16335.7 6396.16C16351.9 6473.24 16358.8 6544.56 16357.5 6610.23C16444.4 7026.83 16776.7 7200.76 17094.1 7178.52C17156.3 7174.17 17217.8 7162.29 17276.9 7143.25C17680 7013.21 17965.3 6548.94 17511 5861.53C16597.1 4478.57 14666.8 4461.1 13921.9 5862.44Z" fill="white"/>
<path d="M14098.6 7119.74C14099 7121.32 14099.4 7122.88 14099.8 7124.45M14289.9 7193.75C14286.6 7192.59 14283.4 7192.54 14280.3 7193.47M17277.1 7142.21C17277 7142.55 17277 7142.9 17276.9 7143.25M17085.8 7178.83C17088.7 7177.84 17091.4 7177.76 17094.1 7178.52M14099.8 7124.45C13782.6 6946.4 13585.7 6494.99 13921.9 5862.44C14666.8 4461.1 16597.1 4478.57 17511 5861.53C17965.3 6548.94 17680 7013.21 17276.9 7143.25M14099.8 7124.45C14156.8 7156.49 14217.8 7179.68 14280.3 7193.47M14099.8 7124.45C14157.2 7363.7 14218.9 7453.22 14218.9 7453.22C14218.9 7453.22 14233.3 7207.79 14280.3 7193.47M14280.3 7193.47C14576.3 7258.81 14905.7 7113.44 15013 6700.22M15013 6700.22C15002 6610.04 15012 6508.61 15048.8 6396.48C15048.8 6510.45 15036 6611.5 15013 6700.22ZM15013 6700.22C15094.7 7371.9 16341.7 7419.06 16357.5 6610.23M16357.5 6610.23C16343.9 6544.9 16336.3 6473.6 16335.7 6396.16C16351.9 6473.24 16358.8 6544.56 16357.5 6610.23ZM16357.5 6610.23C16444.4 7026.83 16776.7 7200.76 17094.1 7178.52M17094.1 7178.52C17156.3 7174.17 17217.8 7162.29 17276.9 7143.25M17094.1 7178.52C17142.2 7192.17 17156.7 7475.75 17156.7 7475.75C17156.7 7475.75 17219 7385.28 17276.9 7143.25M15621.6 7239.4L15689.7 7452.85L15769 7248.19C15719.8 7249.65 15670.3 7246.68 15621.6 7239.4Z" stroke="black" stroke-width="50"/>
</g>
</g>
</svg>
