<svg width="32238" height="32768" viewBox="0 0 32238 32768" fill="none" xmlns="http://www.w3.org/2000/svg">
<g id="poste">
<ellipse id="Ellipse 2" cx="8604.31" cy="7950.24" rx="263.079" ry="297.789" fill="white"/>
<path id="Vector 1" d="M8210.87 10308.1H8980.47L8775.24 10614.1V10738.8H8853.26V10913.5H8775.24H8316.99V10738.8H8395.01V10614.1L8210.87 10308.1Z" fill="black"/>
<path id="Vector 3" d="M8219.5 9061.96H8989.11L8783.88 8755.56V8630.7H8861.9V8455.73H8783.88H8325.63V8630.7H8403.65V8755.56L8219.5 9061.96Z" fill="black"/>
<path id="Rectangle 14" d="M8503 6702.72H8736.24V27144.1H8556.4H8358.5L8503 6702.72Z" fill="black"/>
<path id="Vector 2" d="M8117.41 17763.1H9057.43L8806.76 17443.7V17313.5H8902.05V17131.1H8806.76H8247.04V17313.5H8342.33V17443.7L8117.41 17763.1Z" fill="black"/>
<path id="Polygon 1" d="M8575.45 6308.85C8595.55 6292.23 8624.46 6291.69 8645.17 6307.55L8939.1 6532.73C8959.32 6548.22 8966.53 6575.42 8956.64 6598.9L8854.07 6842.35C8845.33 6863.1 8825 6876.59 8802.48 6876.59H8443.83C8421.31 6876.59 8400.98 6863.1 8392.24 6842.35L8289.03 6597.39C8279.44 6574.62 8285.91 6548.26 8304.95 6532.51L8575.45 6308.85Z" fill="black"/>
<g id="Rectangle 1">
<path d="M8265.05 6992.08H8944.35V7121.32H8839.98H8396.42H8378.06H8265.05V6992.08Z" fill="black"/>
<path d="M8839.98 7121.32H8396.42C8418.5 7135.78 8442.07 7207.33 8431.79 7420.79H8818.99C8808.7 7207.33 8819.74 7135.78 8839.98 7121.32Z" fill="black"/>
</g>
<ellipse id="Ellipse 1" cx="8617.07" cy="7951.34" rx="440.378" ry="468.955" fill="black"/>
<rect id="Rectangle 3" x="8239.14" y="9061.96" width="679.293" height="1246.19" rx="111" fill="black"/>
<rect id="Rectangle 5" x="8248.56" y="17763.1" width="677.722" height="4206.32" fill="black"/>
<rect id="Rectangle 6" x="8094.12" y="21969.8" width="1000.62" height="209.386" fill="black"/>
<rect id="Rectangle 7" x="7887.25" y="22369.5" width="1425.01" height="236.208" fill="black"/>
<rect id="Rectangle 8" x="7959.17" y="22179.2" width="1241.23" height="190.351" fill="black"/>
<path id="Rectangle 9" d="M8037.47 22605.8H9177.9L9558.46 28318.4H7676.07L8037.47 22605.8Z" fill="black"/>
<rect id="Rectangle 10" x="7409.07" y="28318.4" width="2381.84" height="295.57" fill="black"/>
<rect id="Rectangle 11" x="7105.94" y="28839.7" width="3022.27" height="453.381" fill="black"/>
<rect id="Rectangle 12" x="7289.72" y="28606.1" width="2634.27" height="233.612" fill="black"/>
<g id="Rectangle 13">
<path d="M8844.36 9362.9C8844.36 9316.52 8881.96 9278.93 8928.33 9278.93H9373.46C9419.83 9278.93 9457.43 9316.52 9457.43 9362.9V9585.13C9457.43 9619.6 9429.48 9647.55 9395.01 9647.55V9647.55H8994.85H8928.33C8881.96 9647.55 8844.36 9609.95 8844.36 9563.58V9362.9Z" fill="black"/>
<path d="M8994.85 9647.55C8994.85 10054.3 9403.33 10772.8 10322.9 10512.3C10549 10448.2 10935.3 10173.2 11076.8 9695.36C11187.6 9321.19 11723.8 8516.05 12303.6 8516.05C13357.6 8516.05 13207.9 9660.35 12626.5 9528.24C12563.9 9514.02 12558.4 9433.46 12605.1 9389.49C12925.9 9087.87 12725.2 8718.13 12358.4 8860.42C12141.5 8944.58 12041.7 9570.21 12665.6 9679.73C12669.7 9680.44 12674 9680.86 12678.1 9680.91C13380.8 9689.1 13636.6 8638.72 12762 8322.04C12418 8240.74 11614 8234.6 11149.6 8860.42C10685.2 9486.24 10427 9393.95 10604.5 9393.95C10782 9393.95 10720.3 9516.36 10705.7 9573.41C10654.4 9751.25 10427.1 10111.5 9928.32 10129.8C9429.55 10148.1 9364.96 9815.92 9395.01 9647.55H8994.85Z" fill="black"/>
</g>
<rect id="Rectangle 15" x="7795.8" y="24094.8" width="443.041" height="1054.72" rx="180" fill="black"/>
<rect id="Rectangle 16" x="7632.44" y="24270.5" width="327.62" height="702.568" rx="111" fill="black"/>
</g>
<g id="luz-Externa" filter="url(#filter0_f_0_1)">
<path d="M24613.9 16384C24613.9 21222 20810.5 25144 16118.9 25144C11427.3 25144 7623.97 21222 7623.97 16384C7623.97 11546 11427.3 7623.97 16118.9 7623.97C20810.5 7623.97 24613.9 11546 24613.9 16384Z" fill="url(#paint0_radial_0_1)" fill-opacity="0.43"/>
</g>
<g id="luz-interna" filter="url(#filter1_f_0_1)">
<ellipse cx="12753.5" cy="12476.9" rx="1677.75" ry="1648.11" fill="url(#paint1_radial_0_1)"/>
</g>
<g id="farol">
<path id="Vector" d="M13280.1 13316.5C13280.1 13316.5 13211.6 13762.2 12848.5 13755.3L12653.5 13751.6C12341.7 13745.7 12232.5 13296.7 12232.5 13296.7L13280.1 13316.5V13316.5Z" fill="black"/>
<path id="Vector_2" d="M13045.9 13590.2C13045.9 13590.2 13056.7 13970.9 12806.7 13966.1L12672.5 13963.6C12457.8 13959.5 12488.7 13590.9 12488.7 13590.9L13045.9 13590.2Z" fill="black"/>
<path id="Vector_3" d="M12908.4 13845.3C12908.4 13845.3 12914 14071.4 12779.5 14068.9L12707.2 14067.5C12591.6 14065.3 12608.5 13846.3 12608.5 13846.3L12908.4 13845.3Z" fill="black"/>
<path id="Vector_4" d="M12195.4 13281.6L12263.6 13282.9L13317.5 13302.8L13318.1 13246L12280.1 13222L12196.1 13220L12195.4 13281.6Z" fill="black" stroke="black" stroke-width="65" stroke-linecap="round" stroke-linejoin="round"/>
<path id="Vector_5" d="M12280.6 13208.2C12280.6 13208.2 11914.8 11949.7 11918 11651.8L11992.3 11593.6C11954.2 11712.1 12274.4 13029.3 12344 13209.4" fill="black"/>
<path id="Vector_6" d="M13275.8 13232.1C13275.8 13232.1 13667.9 11987.9 13671.1 11690L13598 11629C13633.6 11748.9 13285.8 13053.5 13212.4 13230.9" fill="black"/>
<path id="Vector_7" d="M12362.4 11462.3C12362.4 11462.3 12430.9 12942.8 12570.3 13213.7L12649.9 13220.2C12528.9 13153.3 12434.3 11631.7 12436.2 11453" fill="black"/>
<path id="Vector_8" d="M13205.5 11502.1C13205.5 11502.1 13106.3 12979.5 12961.2 13244.9L12881.5 13248.5C13003.5 13186.1 13130 11668.7 13131.9 11490" fill="black"/>
<path id="Vector_9" d="M12960.5 10688.1C13178.5 10990.2 13653 11446.2 13837 11479.5L13835.2 11649C13835 11661.8 13831.7 11674.4 13825.4 11686.1C13819.1 11697.8 13809.9 11708.3 13798.4 11717C13787 11725.7 13773.5 11732.5 13758.6 11736.9C13743.8 11741.3 13728 11743.2 13712.2 11742.6L13678.3 11742C13655.2 11740.9 13632.9 11734.6 13614 11723.6C13595.2 11712.7 13580.4 11697.7 13571.6 11680.4C13488.9 11519.4 13252.7 11539.3 13211.4 11544.2C13206.7 11544.4 13202 11544.3 13197.4 11544C13135.8 11544.6 12735 11548.3 12361.7 11530.8C12357 11531.2 12352.3 11531.3 12347.7 11531.1C12306.3 11526.2 12067.1 11500.4 11984.4 11661.4C11975.6 11678.7 11960.8 11693.7 11942 11704.6C11923.1 11715.6 11900.8 11721.9 11877.7 11723L11843.8 11723.6C11828 11724.3 11812.2 11722.3 11797.4 11717.9C11782.6 11713.5 11769 11706.8 11757.6 11698C11746.1 11689.3 11736.9 11678.8 11730.6 11667.1C11724.3 11655.4 11721 11642.8 11720.8 11630L11719 11460.5C11903 11427.2 12388.1 10990.2 12606.1 10688.1L12960.5 10688.1Z" fill="black"/>
<path id="Vector_10" d="M12925.8 10828.9L12924.8 10663.9C12924.8 10654.9 12922.5 10645.9 12918.1 10637.4L12875.8 10555.6C12868.3 10541 12854.8 10528.4 12837.1 10519.3C12819.5 10510.3 12798.4 10505.3 12776.9 10505C12754.8 10504.8 12733.2 10509.5 12715.3 10518.5C12697.3 10527.6 12683.9 10540.5 12676.8 10555.5L12639.5 10634.1C12635.9 10641.7 12634 10649.6 12633.8 10657.6L12631.8 10824" fill="black"/>
<path id="Vector_11" d="M12777.2 10534.6C12818.4 10535.3 12852.2 10503.8 12852.6 10464.2C12853.1 10424.6 12820.1 10392 12778.9 10391.3C12737.7 10390.6 12703.9 10422.1 12703.4 10461.7C12703 10501.3 12736 10533.9 12777.2 10534.6Z" fill="black" stroke="black" stroke-miterlimit="10" stroke-linecap="round"/>
</g>
<g id="palanca">
<line id="Line 1" y1="-34.5" x2="925.592" y2="-34.5" transform="matrix(-0.823229 0.00287952 -0.00215484 -0.823231 7796.16 24567.3)" stroke="black" stroke-width="69"/>
<ellipse id="Ellipse 3" cx="7034.68" cy="24598.4" rx="127.751" ry="140.982" fill="#C00000"/>
</g>
<defs>
<filter id="filter0_f_0_1" x="0" y="0" width="32237.8" height="32768" filterUnits="userSpaceOnUse" color-interpolation-filters="sRGB">
<feFlood flood-opacity="0" result="BackgroundImageFix"/>
<feBlend mode="normal" in="SourceGraphic" in2="BackgroundImageFix" result="shape"/>
<feGaussianBlur stdDeviation="4630.5" result="effect1_foregroundBlur_0_1"/>
</filter>
<filter id="filter1_f_0_1" x="11033.8" y="10786.8" width="3439.47" height="3380.2" filterUnits="userSpaceOnUse" color-interpolation-filters="sRGB">
<feFlood flood-opacity="0" result="BackgroundImageFix"/>
<feBlend mode="normal" in="SourceGraphic" in2="BackgroundImageFix" result="shape"/>
<feGaussianBlur stdDeviation="25.5" result="effect1_foregroundBlur_0_1"/>
</filter>
<radialGradient id="paint0_radial_0_1" cx="0" cy="0" r="1" gradientUnits="userSpaceOnUse" gradientTransform="translate(12892.7 12931.4) rotate(29.3353) scale(14625.7 21619.7)">
<stop stop-color="#FAFF00"/>
<stop offset="0.772878" stop-color="#FDFFA6" stop-opacity="0.88"/>
</radialGradient>
<radialGradient id="paint1_radial_0_1" cx="0" cy="0" r="1" gradientUnits="userSpaceOnUse" gradientTransform="translate(10795.7 10562.8) rotate(90) scale(1648.11 1677.75)">
<stop offset="0.166667" stop-color="white"/>
<stop offset="0.260417" stop-color="#FBFF30" stop-opacity="0.56"/>
<stop offset="1" stop-color="#FBFF30" stop-opacity="0"/>
</radialGradient>
</defs>
</svg>
