<svg width="18632" height="22935" viewBox="0 0 18632 22935" fill="none" xmlns="http://www.w3.org/2000/svg">
<g id="globo2">
<path id="Vector 17" d="M9642.16 13730.2C9365.63 13133.1 10039.4 12110.9 9591.43 11417.5C9253.36 10894.1 9182.92 10640.9 9305.87 10100.9C9346.79 9971.33 9418.96 9780.04 9587.27 9657.83M9260.43 4541.96C9808.41 5031.82 9761.23 6851.66 9551.24 7594.73C9409.71 8095.54 9110.5 9076.51 9426.4 9480.53C9482.42 9552.17 9536.45 9610.54 9587.27 9657.83M9587.27 9657.83C9694.25 9580.14 9840.07 9530.36 10041.4 9542.06C10183.9 9546.4 10222.9 9852.41 9941.29 9843.83C9886.33 9848.96 9754.03 9812.98 9587.27 9657.83Z" stroke="black" stroke-width="50" stroke-linecap="round" stroke-linejoin="round"/>
<path id="Vector 14" d="M9277.78 4547.77C9458.96 4462.73 9794.76 4532.3 9709.15 4705.28C9623.55 4878.26 9492.43 4670 9277.78 4547.77Z" stroke="black" stroke-width="50" stroke-linecap="round" stroke-linejoin="round"/>
<path id="Vector 15" d="M9259.12 4569.26C9163.92 4762.73 9187.75 5146.67 9349.8 5070.08C9511.85 4993.5 9342.9 4823.37 9259.12 4569.26Z" stroke="black" stroke-width="50" stroke-linecap="round" stroke-linejoin="round"/>
<path id="Ellipse 10" d="M8994.95 986.628C9388.77 1493.27 9630.56 2243.13 9678.53 2942.36C9702.5 3291.76 9677.98 3627.3 9600.6 3912.46C9523.16 4197.82 9393.36 4430.79 9208.27 4577.98C9079.2 4680.62 8853.44 4732.29 8569.45 4732.98C8286.75 4733.67 7951.17 4683.84 7607.13 4588.54C6918.24 4397.73 6201.19 4026.32 5808.23 3520.78C5019.54 2506.13 5099.81 1119.16 5977.29 421.356C6854.78 -276.443 8206.25 -28.0267 8994.95 986.628Z" fill="#CE66FF" stroke="black" stroke-width="50" stroke-linecap="round" stroke-linejoin="round"/>
</g>
<path id="oreja2" d="M1198.3 17249.4C1967.19 18485.6 1575.87 18875.9 1759.99 20601.2C1896.72 21882.5 3035.84 22050.1 3394.78 21311.3C3543.76 20895.8 4303.92 20690.5 3833.25 20088.5C3380.29 19509.1 2972.43 18859.3 2881.62 18078.2C2087.2 17447.4 638.336 16398.6 1198.3 17249.4Z" fill="#171717" stroke="#030102" stroke-width="50" stroke-linecap="round" stroke-linejoin="round"/>
<path id="cola1" d="M18216.1 19885.8C17997.4 19713.2 17876.4 19466.2 17754.6 19276C17645.8 19522 17402.9 19966.7 17295 20158.3C18004.6 20415.4 18580.8 20268.1 18603.4 20158.3C18636.9 19995 18369.3 20006.7 18216.1 19885.8Z" fill="#414141" stroke="#030102" stroke-width="50" stroke-linecap="round" stroke-linejoin="round"/>
<g id="Group 2">
<g id="Vector 21">
<path d="M6267.37 17773.1C6760.41 17887.2 7086.85 19519.5 6993.09 20066.2C6958.91 20555.7 7054.03 21582.7 7707.88 21775.3C7806.94 21804.5 7983.46 21380.5 8027.27 21229.2C8056.92 21126.7 8058.02 21021.2 8041.07 20916.2C8008.26 20713 7907.8 20512.1 7815.88 20341.1C7904.81 19468 7462.43 18726.9 8487.98 17963.2C8253.61 17160 9175.71 15869.6 7349.14 15765.4C6849.44 15736.9 5412.5 16386.5 6267.37 17773.1Z" fill="#E4E4E4"/>
<path d="M7647.67 19914.1C7617.38 19990.2 7711.08 20146.2 7815.88 20341.1M8041.07 20916.2C8058.02 21021.2 8056.92 21126.7 8027.27 21229.2C7983.46 21380.5 7806.94 21804.5 7707.88 21775.3C7054.03 21582.7 6958.91 20555.7 6993.09 20066.2C7086.85 19519.5 6760.41 17887.2 6267.37 17773.1C5412.5 16386.5 6849.44 15736.9 7349.14 15765.4C9175.71 15869.6 8253.61 17160 8487.98 17963.2C7462.43 18726.9 7904.81 19468 7815.88 20341.1M8041.07 20916.2C7974.74 21012.7 7783.45 21148.2 7548.97 20918.3M8041.07 20916.2C8008.26 20713 7907.8 20512.1 7815.88 20341.1" stroke="#030102" stroke-width="50" stroke-linecap="round" stroke-linejoin="round"/>
</g>
<g id="Vector 24">
<path d="M16951.6 18723.9C17441.2 19929.7 16278.6 21077 15762.7 21749.9C15600.9 21961 15569.1 22424 15615 22602C15688.9 22888.7 13435 22974 13283.6 22865.7C13243.2 22836.8 13207.4 22793.2 13210 22763.8C13206 22703.8 13218.3 22644.3 13249.7 22594.6C13280.7 22486.2 13331.3 22388.6 13461.4 22328.4C13625 22102.3 13670.6 22009.5 14314.7 22161.6C14463.4 22196.7 14746.9 22213.8 14733 21953C14586.8 20970.3 14390.1 20453.8 14885.3 19603.7C15025 19425.9 15257.5 19202.1 15542.7 19048.9L16951.6 18723.9Z" fill="#262626"/>
<path d="M13210 22763.8C13207.4 22793.2 13243.2 22836.8 13283.6 22865.7C13435 22974 15688.9 22888.7 15615 22602C15569.1 22424 15600.9 21961 15762.7 21749.9C16278.6 21077 17441.2 19929.7 16951.6 18723.9L15542.7 19048.9C15257.5 19202.1 15025 19425.9 14885.3 19603.7C14390.1 20453.8 14586.8 20970.3 14733 21953C14746.9 22213.8 14463.4 22196.7 14314.7 22161.6C13670.6 22009.5 13625 22102.3 13461.4 22328.4M13210 22763.8C13197.4 22572.3 13349.5 22386.4 13765.6 22504.2M13210 22763.8C13249.9 22594.3 13265.6 22419 13461.4 22328.4M13461.4 22328.4C13572.7 22264.9 13656.2 22239 13871.3 22306.6" stroke="#030102" stroke-width="50" stroke-linecap="round" stroke-linejoin="round"/>
</g>
<path id="Vector 22" d="M8480.04 17971.2C12260.4 17400.1 13671.7 18472.1 14235.8 19178L15725.7 19554L15967 18871.8L11633.2 15480L3337 16083.4C3696.82 17016.3 5229.19 18699.9 8480.04 17971.2Z" fill="white" stroke="black" stroke-width="50"/>
<g id="Vector 18">
<path d="M9949 13698.5C17574 14800.3 17655 18442 17755.2 19268.8L17562.5 19677.5L17295.6 20151.2C16492.1 21864.2 14068.6 21694.9 13090.2 21789.2C12913.9 21806.2 12867.7 22019.2 12825.8 22286.6C12737.9 22847.3 10728.8 20474.1 10728.8 20202.8C10728.8 20130.5 10745.8 20048.9 10775.1 20023C10807.5 19968.5 10870.4 19925.8 10946.2 19914C11162 19795.3 11306.5 19797.7 11487.5 19830.8C11630.5 19774.5 12148.5 19715.1 12239.5 20622C12260.5 20831.3 12557.2 21035 12684.1 20749.3C13224.6 19532.4 13950.7 19044.8 15081.6 18754.7C13114.8 16268.6 9626.16 16245.9 7773.46 17654C6985.36 17670.4 5403.97 17619.2 4331.08 17283.3C3258.19 16947.4 3055.48 17756.5 3088.23 18203.1C3267.43 19427.7 2158.99 20728.6 1390.16 21415.9C1017.31 21749.2 62.6557 21760.8 164.666 21577.4C857.19 20332 617.964 19157.3 381.436 18784.4C-687.979 17012 809.206 15754.6 2767.21 15226.1C2767.21 15226.1 3524.08 14872.2 4573.71 14454.1C5422 13946 5774.64 14239.6 6279 14088.5C7437.44 13910.7 9273.94 13600.9 9949 13698.5Z" fill="#414141"/>
<path d="M10775.1 20023C10745.8 20048.9 10728.8 20130.5 10728.8 20202.8C10728.8 20474.1 12737.9 22847.3 12825.8 22286.6C12867.7 22019.2 12913.9 21806.2 13090.2 21789.2C14068.6 21694.9 16492.1 21864.2 17295.6 20151.2L17562.5 19677.5L17755.2 19268.8C17655 18442 17574 14800.3 9949 13698.5C9273.94 13600.9 7437.44 13910.7 6279 14088.5C5774.64 14239.6 5422 13946 4573.71 14454.1C3524.08 14872.2 2767.21 15226.1 2767.21 15226.1C809.206 15754.6 -687.979 17012 381.436 18784.4C617.964 19157.3 857.19 20332 164.666 21577.4C62.6557 21760.8 1017.31 21749.2 1390.16 21415.9C2158.99 20728.6 3267.43 19427.7 3088.23 18203.1C3055.48 17756.5 3258.19 16947.4 4331.08 17283.3C5403.97 17619.2 6985.36 17670.4 7773.46 17654C9626.16 16245.9 13114.8 16268.6 15081.6 18754.7M10775.1 20023C10872.5 19859.5 11245 19801.3 11413.8 20370.8M10775.1 20023C11094 19796 11262.6 19789.7 11487.5 19830.8M11487.5 19830.8C11630.5 19774.5 12148.5 19715.1 12239.5 20622C12260.5 20831.3 12557.2 21035 12684.1 20749.3C13224.6 19532.4 13950.7 19044.8 15081.6 18754.7M11487.5 19830.8C11626 19856.1 11749.1 19967.7 11830 20268.7M16044.1 18930.4C15708.7 18768.6 15342.4 18733.5 15081.6 18754.7" stroke="#030102" stroke-width="50" stroke-linecap="round" stroke-linejoin="round"/>
</g>
<path id="Vector 35" d="M17719.2 19466.4L17804.6 19423.7L17719.2 19252.9L17633.8 19295.6L17719.2 19466.4ZM17275 20035L17249.5 20127.1L17433.6 20178L17459 20086L17275 20035ZM17459 20086C17489.8 19974.9 17537 19823.5 17590.1 19694C17616.7 19629 17643.7 19572.1 17669.7 19529.4C17682.6 19508 17694.2 19492 17704.1 19480.7C17714.6 19468.8 17719.9 19466.1 17719.2 19466.4L17633.8 19295.6C17578.6 19323.2 17536.8 19380.1 17506.3 19430.3C17473.1 19485.1 17441.8 19552.1 17413.3 19621.5C17356.3 19760.7 17306.7 19920.1 17275 20035L17459 20086Z" fill="#414141"/>
<g id="Vector 20">
<path d="M5306.12 17497.8C5820.75 17753.5 5731.08 19638.4 5459.94 20207.3C5272.66 20729.8 5065.56 21870.9 5735.42 22255C5793.26 22288.1 5923.97 22168.2 6043.3 22030.6C6133.38 21926.7 6216.97 21812.8 6257.82 21747.1C6322.07 21643.8 6355.49 21529.4 6368.6 21410.8C6393.99 21181.3 6343.29 20936.2 6292.97 20725.9C6658.23 19801.2 6368.6 19102.6 7766.75 18322.7C7750.45 17387.5 9171.3 16232.4 7167.72 15630.7C6619.6 15466.1 4776.23 15762.9 5306.12 17497.8Z" fill="white"/>
<path d="M6368.6 21410.8C6355.49 21529.4 6322.07 21643.8 6257.82 21747.1C6216.97 21812.8 6133.38 21926.7 6043.3 22030.6C5923.97 22168.2 5793.26 22288.1 5735.42 22255C5065.56 21870.9 5272.66 20729.8 5459.94 20207.3C5731.08 19638.4 5820.75 17753.5 5306.12 17497.8C4776.23 15762.9 6619.6 15466.1 7167.72 15630.7C9171.3 16232.4 7750.45 17387.5 7766.75 18322.7C6368.6 19102.6 6658.23 19801.2 6292.97 20725.9M6368.6 21410.8C6265.27 21497.9 6010.81 21593.9 5819.62 21281.5M6368.6 21410.8C6393.99 21181.3 6343.29 20936.2 6292.97 20725.9M6292.97 20725.9C6269.23 20672.5 6208.41 20558.5 6155.08 20529.3" stroke="#030102" stroke-width="50" stroke-linecap="round" stroke-linejoin="round"/>
</g>
<g id="Vector 23" filter="url(#filter0_d_0_1)">
<path d="M5306.63 17460C5087.78 16765 5188.45 15599 6978.51 15599C7419.5 15686 8739.82 16007.8 8004.81 17423.6" stroke="white" stroke-width="89"/>
</g>
<path id="Vector 25" d="M154.256 21590.3C214.339 21483.3 315.253 21293.4 363.355 21162C662.564 21162 705.173 21510.9 689.077 21685.4C520.039 21723.5 97.1846 21691.8 154.256 21590.3Z" fill="black" stroke="black" stroke-width="50"/>
<path id="Vector 26" d="M10010 13698C9423.5 12593.5 9929.31 18935.5 10388 17827.9" stroke="black" stroke-width="50"/>
<path id="Vector 27" d="M9638 13676.5C9141.5 12661.5 9535.32 18925.7 9994 17818.1" stroke="black" stroke-width="50"/>
<path id="Vector 28" d="M9820.5 13683.5C9205.5 12532.5 9739.97 18936.7 10198 17828.9" stroke="black" stroke-width="50"/>
<path id="Vector 29" d="M10156.5 13730C9545.5 12665 10082.3 18936.7 10541 17828.9" stroke="black" stroke-width="50"/>
<path id="Vector 30" d="M9931.3 17952C9067.01 18897.7 10541.6 19595.5 9931.3 17952Z" stroke="black" stroke-width="50"/>
<path id="Vector 31" d="M10017 17953C10320.9 19363.6 11590.8 18742.9 10017 17953Z" stroke="black" stroke-width="50"/>
<ellipse id="Ellipse 4" rx="785.981" ry="800.868" transform="matrix(0.934085 -0.355715 0.396954 0.918389 1555.08 18532.1)" fill="white"/>
<g id="ojoder" filter="url(#filter1_d_0_1)">
<ellipse rx="416.514" ry="412.19" transform="matrix(0.934085 -0.355715 0.396954 0.918389 1428.68 18594.7)" fill="black"/>
</g>
<path id="Ellipse 11" d="M6648 19384C6568.5 19526.9 6412.5 18784 6767.08 18365C7004.81 18084 7491.93 18101 7593 18192C7733.5 18318.5 7291 18610.5 7129 18746C6981.42 18887.3 6843.04 19033.5 6648 19384Z" fill="black"/>
<path id="Ellipse 20" d="M12009.5 17985.8C11846.7 17971.4 12461.5 17526.2 12988.7 17679.3C13342.1 17781.9 13525.1 18233.6 13483.2 18363C13424.9 18542.9 12977.9 18257.8 12788.2 18165.1C12598.9 18087.9 12409.1 18021.1 12009.5 17985.8Z" fill="black"/>
<path id="Ellipse 15" d="M5913.29 20455.1C5886.11 20529.9 5692.59 20062.8 5843.73 19860C5945.06 19724 6233.89 19800.9 6305.8 19869.4C6405.77 19964.5 6185.51 20079.1 6108.79 20138.2C6041.36 20202.8 5979.99 20271.5 5913.29 20455.1Z" fill="black"/>
<path id="Ellipse 26" d="M5090.49 17663.8C4817.48 17685 4755.31 17497.1 4760.45 17447.2C4765.58 17397.3 5019.77 17473.9 5109.08 17483C5198.39 17492.2 5266.63 17540.1 5261.5 17590C5256.36 17639.9 5179.8 17673 5090.49 17663.8Z" fill="black"/>
<path id="Ellipse 21" d="M9389.52 17274.5C9476.52 17593.5 9156.44 17689.5 9067.52 17689.5C8978.6 17689.5 9067.52 17380.8 9067.52 17274.5C9067.52 17168.2 9139.6 17082 9228.52 17082C9317.44 17082 9389.52 17168.2 9389.52 17274.5Z" fill="black"/>
<path id="Ellipse 27" d="M7436.52 19297.5C7523.52 19616.5 7203.44 19712.5 7114.52 19712.5C7025.6 19712.5 7114.52 19403.8 7114.52 19297.5C7114.52 19191.2 7186.6 19105 7275.52 19105C7364.44 19105 7436.52 19191.2 7436.52 19297.5Z" fill="#373737"/>
<ellipse id="Ellipse 16" cx="7638.5" cy="16986" rx="80.5" ry="96" fill="black"/>
<ellipse id="Ellipse 23" cx="8092.5" cy="17689" rx="80.5" ry="96" fill="black"/>
<ellipse id="Ellipse 28" cx="7718.5" cy="18603" rx="80.5" ry="96" fill="#373737"/>
<ellipse id="Ellipse 22" cx="10708.5" cy="17071" rx="80.5" ry="96" fill="black"/>
<ellipse id="Ellipse 19" cx="5917.5" cy="20948" rx="80.5" ry="96" fill="black"/>
<ellipse id="Ellipse 18" cx="5998.5" cy="18164" rx="80.5" ry="96" fill="black"/>
<path id="Ellipse 30" d="M7615.55 21286.5C7524.91 21181.3 7386.86 21151.6 7307.22 21220.2C7227.57 21288.8 7236.48 21429.8 7327.12 21535C7417.76 21640.2 7684.51 21819.3 7764.16 21750.7C7843.81 21682.1 7706.19 21391.8 7615.55 21286.5Z" fill="#373737"/>
<path id="Ellipse 24" d="M14582 18502C14582 18663.3 14460.2 18794 14310 18794C14159.8 18794 14038 18663.3 14038 18502C14038 18340.7 14159.8 17981 14310 17981C14460.2 17981 14582 18340.7 14582 18502Z" fill="black"/>
<ellipse id="Ellipse 14" cx="5551" cy="21588.5" rx="88" ry="221.5" transform="rotate(-13.2581 5551 21588.5)" fill="black"/>
<ellipse id="Ellipse 25" cx="11345.3" cy="17612.2" rx="88" ry="221.5" transform="rotate(91.8867 11345.3 17612.2)" fill="black"/>
<ellipse id="Ellipse 29" cx="7243.49" cy="20467.2" rx="88" ry="221.5" transform="rotate(156.682 7243.49 20467.2)" fill="#373737"/>
<path id="Ellipse 13" d="M6836.34 17062.7C6962.61 17195 6923.45 16918.9 6933.15 16836.3C6942.85 16753.7 6928.12 16671 6890.82 16598.7C6853.52 16526.4 6795.33 16467.7 6723.6 16430C6651.88 16392.3 6569.85 16377.4 6487.87 16387C6405.9 16396.7 6143.89 16427.4 6079.3 16481.2C6014.7 16535 5966.65 16606.2 5941.21 16685.9C5915.77 16765.6 5914.09 16850.3 5936.37 16929.1C5958.66 17007.9 5970.26 17046.3 6032.77 17097.7C6236.93 17272.8 6340.86 16886.4 6486.67 16772C6632.48 16657.5 6710.07 16930.5 6836.34 17062.7Z" fill="black"/>
<path id="Vector 33" d="M654 18843C501.056 18487.7 246.5 18263 246.5 16960C106.667 17239.5 -73.6999 18013.7 429.5 18806.5C587.833 19075.2 871.5 20015.5 388.5 21145C760 20442 983.5 19608.5 654 18843Z" fill="white" stroke="black"/>
</g>
<path id="oreja1" d="M1365.14 16947.5C2802.02 17631.8 2680.87 18228.8 3880.47 19718C4771.26 20823.9 5904.22 20294.9 5787.46 19394.3C5673.84 18919.5 6240.04 18272.4 5453.06 17997C4695.66 17731.9 3937.03 17374.4 3387.14 16704.6C2289.44 16597 348.26 16495 1365.14 16947.5Z" fill="#222222" stroke="#030102" stroke-width="50" stroke-linecap="round" stroke-linejoin="round"/>
<defs>
<filter id="filter0_d_0_1" x="5052.51" y="15428.5" width="3341.12" height="2170.87" filterUnits="userSpaceOnUse" color-interpolation-filters="sRGB">
<feFlood flood-opacity="0" result="BackgroundImageFix"/>
<feColorMatrix in="SourceAlpha" type="matrix" values="0 0 0 0 0 0 0 0 0 0 0 0 0 0 0 0 0 0 127 0" result="hardAlpha"/>
<feOffset/>
<feGaussianBlur stdDeviation="63"/>
<feComposite in2="hardAlpha" operator="out"/>
<feColorMatrix type="matrix" values="0 0 0 0 1 0 0 0 0 1 0 0 0 0 1 0 0 0 1 0"/>
<feBlend mode="normal" in2="BackgroundImageFix" result="effect1_dropShadow_0_1"/>
<feBlend mode="normal" in="SourceGraphic" in2="effect1_dropShadow_0_1" result="shape"/>
</filter>
<filter id="filter1_d_0_1" x="881.505" y="18064.1" width="1094.35" height="1063.24" filterUnits="userSpaceOnUse" color-interpolation-filters="sRGB">
<feFlood flood-opacity="0" result="BackgroundImageFix"/>
<feColorMatrix in="SourceAlpha" type="matrix" values="0 0 0 0 0 0 0 0 0 0 0 0 0 0 0 0 0 0 127 0" result="hardAlpha"/>
<feMorphology radius="121" operator="dilate" in="SourceAlpha" result="effect1_dropShadow_0_1"/>
<feOffset dy="1"/>
<feGaussianBlur stdDeviation="2"/>
<feComposite in2="hardAlpha" operator="out"/>
<feColorMatrix type="matrix" values="0 0 0 0 0.8875 0 0 0 0 0.662667 0 0 0 0 0.325417 0 0 0 1 0"/>
<feBlend mode="normal" in2="BackgroundImageFix" result="effect1_dropShadow_0_1"/>
<feBlend mode="normal" in="SourceGraphic" in2="effect1_dropShadow_0_1" result="shape"/>
</filter>
</defs>
</svg>
