<svg width="17769" height="8272" viewBox="0 0 17769 8272" fill="none" xmlns="http://www.w3.org/2000/svg">
<g id="patas">
<g id="Vector 1">
<path d="M185.704 6390.21C903.659 4989.06 2985.25 5022.72 3720.77 6390.21C4160.85 7208.41 3681.95 7714.28 3224.18 7704.16C2963.62 7698.4 2709.91 7525.47 2636.41 7147.82C2625.81 7541.67 2334.46 7729.49 2032.62 7738.68C1985.13 7740.12 1937.39 7737.14 1890.43 7729.85C1628.81 7689.21 1391.82 7514.61 1361.48 7224.48C1246.09 7663.76 872.387 7802.63 549.48 7708.98C549.48 7708.98 405.234 7654.35 340.688 7609.8C48.7587 7408.3 -115.041 6977.14 185.704 6390.21Z" fill="#9B5A0D"/>
<path d="M185.704 6390.21C903.659 4989.06 2985.25 5022.72 3720.77 6390.21C4160.85 7208.41 3681.95 7714.28 3224.18 7704.16C2916.87 7697.37 2619.08 7458.03 2615.25 6924.54C2726.41 7471.26 2386.73 7727.9 2032.62 7738.68C1985.13 7740.12 1937.39 7737.14 1890.43 7729.85C1548.5 7676.74 1248.62 7394.78 1397.24 6925.13C1397.24 7599.1 936.811 7821.31 549.48 7708.98C549.48 7708.98 405.234 7654.35 340.688 7609.8C48.7587 7408.3 -115.041 6977.14 185.704 6390.21Z" stroke="black" stroke-width="50"/>
</g>
<g id="Vector 2">
<path d="M13921.9 6396.44C13585.7 7028.99 13782.6 7480.4 14099.8 7658.45C14156.8 7690.49 14217.8 7713.68 14280.3 7727.47C14576.3 7792.81 14905.7 7647.44 15013 7234.22C15002 7144.04 15012 7042.61 15048.8 6930.48C15048.8 7044.45 15036 7145.5 15013 7234.22C15094.7 7905.9 16341.7 7953.06 16357.5 7144.23C16343.9 7078.9 16336.3 7007.6 16335.7 6930.16C16351.9 7007.24 16358.8 7078.56 16357.5 7144.23C16444.4 7560.83 16776.7 7734.76 17094.1 7712.52C17156.3 7708.17 17217.8 7696.29 17276.9 7677.25C17680 7547.21 17965.3 7082.94 17511 6395.53C16597.1 5012.57 14666.8 4995.1 13921.9 6396.44Z" fill="#9B5A0D"/>
<path d="M14098.6 7653.74C14099 7655.32 14099.4 7656.88 14099.8 7658.45M14289.9 7727.75C14286.6 7726.59 14283.4 7726.54 14280.3 7727.47M17277.1 7676.21C17277 7676.55 17277 7676.9 17276.9 7677.25M17085.8 7712.83C17088.7 7711.84 17091.4 7711.76 17094.1 7712.52M14099.8 7658.45C13782.6 7480.4 13585.7 7028.99 13921.9 6396.44C14666.8 4995.1 16597.1 5012.57 17511 6395.53C17965.3 7082.94 17680 7547.21 17276.9 7677.25M14099.8 7658.45C14156.8 7690.49 14217.8 7713.68 14280.3 7727.47M14280.3 7727.47C14576.3 7792.81 14905.7 7647.44 15013 7234.22M15013 7234.22C15002 7144.04 15012 7042.61 15048.8 6930.48C15048.8 7044.45 15036 7145.5 15013 7234.22ZM15013 7234.22C15094.7 7905.9 16341.7 7953.06 16357.5 7144.23M16357.5 7144.23C16343.9 7078.9 16336.3 7007.6 16335.7 6930.16C16351.9 7007.24 16358.8 7078.56 16357.5 7144.23ZM16357.5 7144.23C16444.4 7560.83 16776.7 7734.76 17094.1 7712.52M17094.1 7712.52C17156.3 7708.17 17217.8 7696.29 17276.9 7677.25" stroke="black" stroke-width="50"/>
</g>
</g>
<g id="Group 3">
<g id="cara">
<path id="Ellipse 1" d="M13709 5850.74C13709 6436.87 13578.2 6877.67 13342.1 7209.98C13106 7542.3 12762.7 7768.64 12333.2 7922.63C11472.4 8231.23 10272.5 8246.98 8914.67 8246.98C7557 8246.98 6308.37 8231.27 5398.99 7922.49C4945.02 7768.35 4577.59 7541.77 4323.48 7209.28C4069.51 6876.98 3926.85 6436.42 3926.85 5850.74C3926.85 4676.14 4299.13 3549.6 5094.84 2716.88C5890.27 1884.44 7111.27 1343.08 8813.87 1343.08C10449.6 1343.08 11672.9 1884.3 12487.2 2717.08C13301.7 3550.09 13709 4676.72 13709 5850.74Z" fill="#9B5A0D" stroke="black" stroke-width="50"/>
<g id="Group 2">
<ellipse id="Ellipse 2" cx="7741.11" cy="4999.35" rx="304.189" ry="758.885" fill="black"/>
<ellipse id="Ellipse 3" cx="9845.23" cy="4999.35" rx="304.189" ry="758.885" fill="black"/>
</g>
</g>
<ellipse id="Ellipse 4" cx="6896.14" cy="3326.87" rx="336.513" ry="232.587" transform="rotate(-26.0872 6896.14 3326.87)" fill="#D7922A"/>
<ellipse id="Ellipse 5" rx="370.791" ry="232.587" transform="matrix(-0.898126 -0.439738 -0.439738 0.898126 10584.3 3325.94)" fill="#D7922A"/>
<path id="Vector 4" d="M3351.49 25C5378.47 348.957 6875 1634.25 6548 1731.5C6221 1828.75 5790.5 2167.25 5219.5 2619.5C4760.25 2983.24 4361.68 3863 4225.51 4138C4181.51 4211 3709.01 3860.5 3602.48 3043.04C3539.25 2557.81 3449.82 2410.76 3250.38 2167.25C2677.02 1395.43 2876.86 25.0032 3351.49 25Z" fill="#9B5A0D" stroke="black" stroke-width="50"/>
<path id="Vector 5" d="M3723.06 730C5209.42 971.647 6319 1788.5 6098 1939.5C5881.73 2087.27 5587.62 2324.24 5182.74 2650.45L5156 2672C4819.24 2943.33 4463.82 3592.85 4363.97 3797.98C4331.71 3852.43 3985.23 3590.99 3907.11 2981.23C3860.74 2619.28 3795.17 2509.6 3648.92 2327.95C3228.48 1752.24 3375.02 730.002 3723.06 730Z" fill="#FFC29F" stroke="black" stroke-width="50"/>
<path id="Vector 6" d="M14261.5 25C12234.5 348.957 10738 1634.25 11065 1731.5C11392 1828.75 11822.5 2167.25 12393.5 2619.5C12852.7 2983.24 13251.3 3863 13387.4 4138C13431.4 4211 13903.9 3860.5 14010.5 3043.04C14073.7 2557.81 14163.1 2410.76 14362.6 2167.25C14935.9 1395.43 14736.1 25.0032 14261.5 25Z" fill="#9B5A0D" stroke="black" stroke-width="50"/>
<path id="Vector 7" d="M13889.9 730C12403.5 971.647 11294 1788.5 11515 1939.5C11731.2 2087.27 12025.3 2324.24 12430.2 2650.45L12457 2672C12793.7 2943.33 13149.1 3592.85 13249 3797.98C13281.3 3852.43 13627.7 3590.99 13705.8 2981.23C13752.2 2619.28 13817.8 2509.6 13964 2327.95C14384.5 1752.24 14237.9 730.002 13889.9 730Z" fill="#FFC29F" stroke="black" stroke-width="50"/>
<path id="Vector 8" d="M8985.12 972.376C9161.64 91.7225 8246.25 723.982 8018 1384C8271 1331 9098 1320 9515.5 1370.5C9643.32 802.112 9215.92 846.734 8985.12 972.376Z" fill="#9B5A0D" stroke="black" stroke-width="50"/>
</g>
</svg>
