<svg width="19133" height="7910" viewBox="0 0 19133 7910" fill="none" xmlns="http://www.w3.org/2000/svg">
<g id="cara">
<path id="Ellipse 1" d="M14326.5 5488.74C14326.5 6074.87 14195.7 6515.67 13959.6 6847.98C13723.4 7180.3 13380.2 7406.65 12950.7 7560.63C12089.9 7869.24 10890 7884.99 9532.15 7884.99C8174.49 7884.99 6925.86 7869.27 6016.47 7560.5C5562.51 7406.35 5195.07 7179.77 4940.96 6847.28C4687 6514.98 4544.34 6074.42 4544.34 5488.74C4544.34 4314.15 4916.62 3187.6 5712.32 2354.88C6507.75 1522.45 7728.76 981.084 9431.36 981.084C11067.1 981.084 12290.4 1522.31 13104.7 2355.09C13919.2 3188.1 14326.5 4314.73 14326.5 5488.74Z" fill="#454545" stroke="black" stroke-width="50"/>
<ellipse id="Ellipse 4" cx="7513.67" cy="2964.87" rx="336.513" ry="232.587" transform="rotate(-26.0872 7513.67 2964.87)" fill="#A4A4A4"/>
<ellipse id="Ellipse 5" rx="370.791" ry="232.587" transform="matrix(-0.898126 -0.439738 -0.439738 0.898126 11201.8 2963.95)" fill="#A4A4A4"/>
<path id="Vector 10" d="M7674.52 1217C10050.1 4405.75 9596.96 5765.87 7711.02 7846.51C8790.72 7891.53 11016.2 7900.14 11043 7846.51C9312.63 6212.47 9176.74 3690.82 11106.5 1217C11106.5 1156.34 10465.5 1024.96 9760.52 989.505C8734.52 937.906 7930.19 1113.34 7674.52 1217Z" fill="white" stroke="black" stroke-width="48"/>
<path id="Vector 21" d="M9340.7 3873.98C9301.51 3809.3 9347.41 3762.67 9375.25 3747.45C9573.76 3638.91 9596.79 3873.98 9454.35 3902.13C9432.8 3919.7 9379.9 3938.67 9340.7 3873.98Z" fill="black" stroke="black" stroke-width="48"/>
<path id="Vector 21_2" d="M8280.2 1563.5C8163.16 1390.14 8479.53 1331.04 8562.69 1290.24C9155.5 999.342 9224.28 1629.36 8798.91 1704.78C8734.55 1751.88 8397.24 1736.86 8280.2 1563.5Z" fill="black" stroke="black" stroke-width="48"/>
<path id="Vector 21_3" d="M8996.55 2577.18C9087.41 2416.07 8804.39 2260.91 9396.5 2377.9C9988.61 2494.89 9875.08 2953.48 9576.98 2867.51C9357.17 2819.55 8813.54 2901.68 8996.55 2577.18Z" fill="black" stroke="black" stroke-width="48"/>
<path id="Vector 21_4" d="M9846.3 1748.27C9782.31 1637.93 9857.24 1558.41 9902.71 1532.43C10226.8 1347.29 10260.8 1635.09 10028.2 1683.1C9993.05 1713.07 9910.29 1858.61 9846.3 1748.27Z" fill="black" stroke="black" stroke-width="48"/>
<ellipse id="Ellipse 3" cx="10462.8" cy="4637.36" rx="304.189" ry="758.885" fill="black"/>
<ellipse id="Ellipse 2" cx="8358.64" cy="4637.36" rx="304.189" ry="758.885" fill="black"/>
<path id="Vector 5" d="M7261.97 509.992C7580.84 782.539 7707.76 1192.74 7627.72 1212.94C7547.67 1233.14 7356 1298.5 7178 1365.5C7032.96 1420.09 6783.07 1540.9 6723 1594.5C6705.66 1607.98 6683.02 1455.27 6770.5 1247C6822.43 1123.37 6846.31 1072.1 6842.5 994C6840.88 752.097 7177.42 464.555 7261.97 509.992Z" fill="#FFE0CE" stroke="black" stroke-width="50"/>
<path id="Vector 23" d="M11690.7 509.609C11371.9 782.155 11206 1226.42 11286 1246.62C11366 1266.82 11590.1 1341.7 11757.5 1432C11909.5 1514 12256.4 1673.4 12316.5 1727C12333.8 1740.48 12269.7 1454.89 12182.2 1246.62C12130.3 1122.99 12106.4 1071.72 12110.2 993.617C12111.8 751.714 11775.3 464.172 11690.7 509.609Z" fill="#FFE0CE" stroke="black" stroke-width="50"/>
<g id="Vector 9">
<path d="M6313.53 918.138C7511.38 -803.154 8440.88 374.256 8481 1038C8106.36 1044.91 7767.82 1202.32 7642.5 1213.5C7091.59 -539.197 6719.72 1706.12 6144.94 3729.88C5863.16 4721.98 4844.67 5616.84 3414.94 5285.15C3543.94 5278.02 3707.48 5243.41 3794.36 5150.11C4127.42 4792.42 3778.44 3922.12 3148.62 3092.61C2820.64 2660.65 3041.81 2098.15 3277.01 1958.62C4139.42 2140.01 5115.69 2639.43 6313.53 918.138Z" fill="#454545"/>
<path d="M3277.01 1958.62C4139.42 2140.01 5115.69 2639.43 6313.53 918.138C7511.38 -803.154 8440.88 374.256 8481 1038C8106.36 1044.91 7767.82 1202.32 7642.5 1213.5C7091.59 -539.197 6719.72 1706.12 6144.94 3729.88C5863.16 4721.98 4844.67 5616.84 3414.94 5285.15C3543.94 5278.02 3707.48 5243.41 3794.36 5150.11C4127.42 4792.42 3778.44 3922.12 3148.62 3092.61C2820.64 2660.65 3041.81 2098.15 3277.01 1958.62ZM3277.01 1958.62C3375.78 2031.13 3058.1 1896.45 3277.01 1958.62Z" stroke="black" stroke-width="48"/>
</g>
<g id="Vector 22">
<path d="M12686.3 918.82C11488.5 -802.472 10559 374.939 10518.9 1038.68C10899.5 1103 11207.5 1225 11338 1267C11888.9 -485.699 12280.1 1706.8 12854.9 3730.56C13136.7 4722.67 14155.2 5617.53 15584.9 5285.84C15455.9 5278.7 15292.4 5244.1 15205.5 5150.79C14872.4 4793.1 15221.4 3922.81 15851.2 3093.29C16179.2 2661.33 15958.1 2098.84 15722.9 1959.31C14860.4 2140.69 13884.2 2640.11 12686.3 918.82Z" fill="#454545"/>
<path d="M15722.9 1959.31C14860.4 2140.69 13884.2 2640.11 12686.3 918.82C11488.5 -802.472 10559 374.939 10518.9 1038.68C10899.5 1103 11207.5 1225 11338 1267C11888.9 -485.699 12280.1 1706.8 12854.9 3730.56C13136.7 4722.67 14155.2 5617.53 15584.9 5285.84C15455.9 5278.7 15292.4 5244.1 15205.5 5150.79C14872.4 4793.1 15221.4 3922.81 15851.2 3093.29C16179.2 2661.33 15958.1 2098.84 15722.9 1959.31ZM15722.9 1959.31C15624.1 2031.81 15941.8 1897.13 15722.9 1959.31Z" stroke="black" stroke-width="48"/>
</g>
</g>
<g id="patas">
<g id="Vector 1">
<path d="M185.704 5851.26C903.659 4450.1 2985.25 4483.77 3720.77 5851.25C4160.85 6669.46 3681.95 7175.33 3224.18 7165.21C2963.62 7159.45 2709.91 6986.52 2636.41 6608.87C2625.81 7002.71 2334.46 7190.54 2032.62 7199.72C1985.13 7201.17 1937.39 7198.19 1890.43 7190.9C1628.81 7150.26 1391.82 6975.66 1361.48 6685.53C1246.09 7124.81 872.387 7263.67 549.48 7170.02C549.48 7170.02 405.234 7115.4 340.688 7070.85C48.7587 6869.35 -115.041 6438.19 185.704 5851.26Z" fill="white"/>
<path d="M185.704 5851.26C903.659 4450.1 2985.25 4483.77 3720.77 5851.25C4160.85 6669.46 3681.95 7175.33 3224.18 7165.21C2916.87 7158.41 2619.08 6919.08 2615.25 6385.58C2726.41 6932.3 2386.73 7188.95 2032.62 7199.72C1985.13 7201.17 1937.39 7198.19 1890.43 7190.9C1548.5 7137.78 1248.62 6855.83 1397.24 6386.18C1397.24 7060.14 936.811 7282.36 549.48 7170.02C549.48 7170.02 405.234 7115.4 340.688 7070.85C48.7587 6869.35 -115.041 6438.19 185.704 5851.26Z" stroke="black" stroke-width="50"/>
</g>
<g id="Vector 2">
<path d="M15286 5880.46C14949.8 6513.01 15146.7 6964.43 15463.9 7142.47C15521 7174.51 15582 7197.7 15644.4 7211.5C15940.4 7276.84 16269.8 7131.46 16377.1 6718.24C16366.1 6628.06 16376.1 6526.63 16412.9 6414.51C16412.9 6528.47 16400.1 6629.53 16377.1 6718.24C16458.9 7389.92 17705.8 7437.08 17721.6 6628.25C17708 6562.92 17700.4 6491.62 17699.8 6414.18C17716.1 6491.26 17722.9 6562.58 17721.6 6628.25C17808.5 7044.86 18140.8 7218.78 18458.2 7196.54C18520.4 7192.19 18581.9 7180.31 18641 7161.27C19044.1 7031.24 19329.4 6566.96 18875.1 5879.55C17961.2 4496.59 16030.9 4479.12 15286 5880.46Z" fill="white"/>
<path d="M15462.7 7137.76C15463.1 7139.34 15463.5 7140.91 15463.9 7142.47M15654 7211.77C15650.7 7210.61 15647.5 7210.56 15644.4 7211.5M18641.2 7160.23C18641.2 7160.58 18641.1 7160.92 18641 7161.27M18449.9 7196.86C18452.8 7195.86 18455.6 7195.79 18458.2 7196.54M15463.9 7142.47C15146.7 6964.43 14949.8 6513.01 15286 5880.46C16030.9 4479.12 17961.2 4496.59 18875.1 5879.55C19329.4 6566.96 19044.1 7031.24 18641 7161.27M15463.9 7142.47C15521 7174.51 15582 7197.7 15644.4 7211.5M15644.4 7211.5C15940.4 7276.84 16269.8 7131.46 16377.1 6718.24M16377.1 6718.24C16366.1 6628.06 16376.1 6526.63 16412.9 6414.51C16412.9 6528.47 16400.1 6629.53 16377.1 6718.24ZM16377.1 6718.24C16458.9 7389.92 17705.8 7437.08 17721.6 6628.25M17721.6 6628.25C17708 6562.92 17700.4 6491.62 17699.8 6414.18C17716.1 6491.26 17722.9 6562.58 17721.6 6628.25ZM17721.6 6628.25C17808.5 7044.86 18140.8 7218.78 18458.2 7196.54M18458.2 7196.54C18520.4 7192.19 18581.9 7180.31 18641 7161.27" stroke="black" stroke-width="50"/>
</g>
<path id="Vector 16" d="M1607.67 6099.55C1490.63 5926.19 1807 5867.09 1890.16 5826.28C2482.98 5535.39 2551.76 6165.4 2126.39 6240.83C2062.02 6287.92 1724.71 6272.91 1607.67 6099.55Z" fill="black" stroke="black" stroke-width="48"/>
<path id="Vector 11" d="M264.018 6337.2C354.876 6176.09 71.8597 6020.93 663.971 6137.92C1256.08 6254.91 1142.55 6713.51 844.452 6627.54C624.645 6579.58 81.015 6661.7 264.018 6337.2Z" fill="black" stroke="black" stroke-width="48"/>
<path id="Vector 18" d="M18023 6419.12C18113.9 6258.01 17830.9 6102.85 18423 6219.84C19015.1 6336.83 18901.5 6795.43 18603.5 6709.46C18383.6 6661.5 17840 6743.62 18023 6419.12Z" fill="black" stroke="black" stroke-width="48"/>
<path id="Vector 12" d="M16668.7 6285.45C16551.6 6112.09 16868 6052.99 16951.2 6012.18C17544 5721.29 17612.8 6351.3 17187.4 6426.73C17123 6473.82 16785.7 6458.81 16668.7 6285.45Z" fill="black" stroke="black" stroke-width="48"/>
<path id="Vector 13" d="M1638 5331.05C1442.5 5148.55 1745.17 5037.32 1796.31 5012.12C2160.84 4832.49 2284.5 5142.05 1925.5 5204.05C1885.92 5233.13 1732.3 5419.07 1638 5331.05Z" fill="black" stroke="black" stroke-width="48"/>
<path id="Vector 19" d="M17767 5763.24C17571.5 5580.74 17874.2 5469.52 17925.3 5444.32C18289.9 5264.68 18413.5 5574.24 18054.5 5636.24C18015 5665.32 17861.3 5851.27 17767 5763.24Z" fill="black" stroke="black" stroke-width="48"/>
<path id="Vector 15" d="M754.175 5636.03C714.983 5571.34 760.877 5524.72 788.722 5509.49C987.23 5400.95 1010.26 5636.03 867.823 5664.18C846.27 5681.75 793.367 5700.72 754.175 5636.03Z" fill="black" stroke="black" stroke-width="48"/>
<path id="Vector 17" d="M15332.2 6604.93C15293 6540.24 15338.9 6493.62 15366.7 6478.39C15565.2 6369.85 15588.3 6604.93 15445.8 6633.07C15424.3 6650.65 15371.4 6669.62 15332.2 6604.93Z" fill="black" stroke="black" stroke-width="48"/>
<path id="Vector 14" d="M2915.78 5799.32C2851.79 5688.98 2926.72 5609.45 2972.18 5583.48C3296.3 5398.34 3330.28 5686.14 3097.72 5734.14C3062.53 5764.12 2979.77 5909.66 2915.78 5799.32Z" fill="black" stroke="black" stroke-width="48"/>
<path id="Vector 20" d="M15815.8 5858.22C15751.8 5747.88 15826.7 5668.35 15872.2 5642.38C16196.3 5457.24 16230.3 5745.03 15997.7 5793.04C15962.5 5823.01 15879.8 5968.56 15815.8 5858.22Z" fill="black" stroke="black" stroke-width="48"/>
</g>
</svg>
